<svg width="1512" height="855" viewBox="0 0 1512 855" fill="none" xmlns="http://www.w3.org/2000/svg">
<mask id="mask0_493_76" style="mask-type:luminance" maskUnits="userSpaceOnUse" x="0" y="0" width="1512" height="855">
<path d="M0.5 0.5H1511.5V854.5H0.5V0.5Z" fill="white" stroke="white"/>
</mask>
<g mask="url(#mask0_493_76)">
<path d="M-167.706 274.241C-107.478 215.674 -5.54401 203.918 74.844 246.133C138.348 279.478 185.976 341.145 251.874 368.719C348.012 408.797 450.072 365.192 537.264 321.16C624.456 277.127 724.5 231.278 821.898 267.401C860.076 281.616 893.466 307.266 929.502 326.717C965.538 346.275 1008.25 359.848 1044.54 347.13C1082.84 333.664 1103.76 295.189 1130.6 265.585C1181.88 208.727 1263.53 180.726 1343.54 192.589C1423.55 204.452 1500.03 255.859 1542.87 326.717" stroke="#D5E2E0" stroke-miterlimit="10"/>
<path d="M-164.934 295.83C-116.424 246.668 -39.06 228.713 31.752 246.668C46.494 250.408 60.984 255.645 74.97 262.485C115.92 282.685 150.948 314.747 188.118 342.535C208.782 358.138 230.202 372.246 254.016 382.078C260.316 384.643 266.616 386.888 272.916 388.812C308.196 399.499 344.106 399.82 379.386 393.3C416.304 386.46 452.718 372.567 487.746 356.856C505.26 349.054 522.396 340.718 539.154 332.595C598.5 303.525 664.02 274.776 730.17 269.539C761.922 267.081 793.548 269.646 824.796 280.333C862.722 293.265 895.86 316.885 931.392 334.626C939.204 338.473 947.142 342.107 955.458 345.207C984.816 356.428 1016.69 361.558 1044.92 351.192C1083.1 337.191 1104.64 299.25 1131.98 270.18C1135.64 266.333 1139.42 262.485 1143.45 258.958C1195.74 210.972 1271.84 188.848 1346.44 200.07C1353.74 201.139 1361.05 202.528 1368.23 204.345C1440.43 221.445 1507.46 269.539 1547.03 333.664" stroke="#D5E2E0" stroke-miterlimit="10"/>
<path d="M-162.162 317.526C-114.912 267.615 -38.808 248.271 31.752 264.302C46.494 267.615 60.984 272.532 74.97 278.944C116.298 297.968 151.956 328.962 189.504 356.428C210.42 371.818 231.966 385.926 255.78 395.652C262.08 398.217 268.38 400.461 274.68 402.385C310.212 413.072 346.122 413.393 381.276 406.232C418.068 398.858 453.852 384.323 489.006 368.505C506.52 360.597 523.782 352.367 540.666 344.458C600.39 316.03 666.288 289.311 732.69 284.288C764.694 281.83 796.32 283.967 827.316 293.693C865.116 305.342 897.876 326.931 932.778 342.855C940.464 346.382 948.276 349.588 956.466 352.367C985.32 362.307 1016.69 366.475 1044.67 355.787C1082.59 341.252 1104.89 303.846 1132.74 275.31C1136.52 271.463 1140.43 267.829 1144.33 264.302C1197.5 217.491 1273.73 196.65 1348.58 207.979C1355.89 209.048 1363.19 210.544 1370.5 212.254C1442.95 229.354 1510.36 277.02 1550.68 341.038" stroke="#D5E2E0" stroke-miterlimit="10"/>
<path d="M-159.264 339.114C-113.4 288.456 -38.43 267.722 31.752 281.829C46.494 284.822 60.984 289.204 75.096 295.296C116.676 313.144 153.09 343.069 191.142 370.215C212.31 385.391 233.982 399.392 257.922 409.118C264.222 411.683 270.522 413.927 276.948 415.851C312.606 426.538 348.642 426.752 383.544 419.057C420.084 411.148 455.49 395.972 490.644 379.941C508.284 371.925 525.546 363.803 542.556 356.108C602.784 328.427 669.06 303.632 735.588 298.823C767.844 296.471 799.47 298.181 830.214 306.838C867.762 317.312 900.144 336.87 934.668 350.978C942.228 354.077 949.914 356.963 957.852 359.314C986.202 367.971 1017.07 371.07 1044.92 360.062C1082.72 344.886 1105.52 308.121 1134 280.226C1137.78 276.486 1141.81 272.852 1145.84 269.432C1199.9 223.689 1276.25 204.131 1351.22 215.567C1358.53 216.743 1365.97 218.132 1373.15 219.842C1445.98 236.835 1513.64 284.288 1554.59 348.199" stroke="#D5E2E0" stroke-miterlimit="10"/>
<path d="M-156.492 360.703C-111.888 309.297 -38.178 287.173 31.752 299.464C46.494 302.029 60.984 306.09 75.222 311.755C117.054 328.534 154.224 357.283 192.78 384.109C214.074 399.072 235.998 412.965 260.064 422.798C266.364 425.363 272.79 427.607 279.09 429.531C314.874 440.218 351.036 440.325 385.812 431.989C422.226 423.439 457.128 407.622 492.282 391.59C509.922 383.468 527.31 375.559 544.446 367.971C605.052 340.932 671.832 318.167 738.486 313.465C770.994 311.22 802.494 312.396 833.238 319.984C870.534 329.175 902.664 346.703 936.558 358.993C943.992 361.665 951.552 364.123 959.364 366.154C987.21 373.422 1017.7 375.773 1045.3 364.337C1082.97 348.733 1106.41 312.396 1135.39 285.036C1139.29 281.402 1143.32 277.875 1147.48 274.455C1202.54 229.995 1279.03 211.613 1354.12 223.155C1361.56 224.331 1368.86 225.72 1376.17 227.43C1449.25 244.317 1517.29 291.448 1558.87 355.253" stroke="#D5E2E0" stroke-miterlimit="10"/>
<path d="M-153.72 382.399C-110.376 330.244 -37.926 306.624 31.752 317.098C46.494 319.343 61.11 322.976 75.222 328.213C117.306 343.817 155.232 371.498 194.166 398.003C215.712 412.751 237.762 426.645 261.828 436.371C268.128 438.936 274.554 441.18 280.98 443.104C316.89 453.791 353.178 453.684 387.828 444.921C423.99 435.729 458.514 419.378 493.542 403.239C511.182 395.01 528.696 387.208 545.958 379.727C606.942 353.436 674.226 332.595 741.006 328.106C773.64 325.969 805.266 326.717 835.758 333.236C872.802 341.252 904.68 356.642 938.07 367.116C945.378 369.36 952.812 371.498 960.498 373.101C987.84 379.086 1017.83 380.368 1045.17 368.612C1082.72 352.474 1106.66 316.564 1136.27 289.845C1140.3 286.211 1144.33 282.791 1148.62 279.585C1204.56 236.194 1281.17 219.094 1356.52 230.85C1363.95 232.026 1371.26 233.415 1378.57 235.125C1451.9 252.011 1520.32 298.823 1562.65 362.413" stroke="#D5E2E0" stroke-miterlimit="10"/>
<path d="M-150.948 403.988C-108.99 351.085 -37.548 326.076 31.626 334.626C46.242 336.443 60.984 339.649 75.222 344.565C117.558 358.993 156.24 385.605 195.678 411.79C217.35 426.325 239.652 440.111 263.844 449.837C270.27 452.402 276.57 454.646 282.996 456.463C319.032 467.151 355.32 466.937 389.97 457.639C425.88 447.913 460.026 430.92 495.054 414.568C512.82 406.339 530.334 398.537 547.722 391.27C609.084 365.726 676.872 346.81 743.778 342.535C776.664 340.504 808.29 340.718 838.53 346.275C875.448 353.008 906.948 366.475 939.834 375.131C947.016 377.055 954.324 378.765 961.884 380.048C988.722 384.75 1018.33 385.071 1045.42 372.994C1082.72 356.321 1107.41 320.946 1137.65 294.868C1141.69 291.341 1145.97 288.028 1150.25 284.822C1206.95 242.606 1283.94 226.789 1359.29 238.652C1366.72 239.828 1374.03 241.217 1381.46 242.927C1455.17 259.706 1523.84 306.197 1566.81 369.681" stroke="#D5E2E0" stroke-miterlimit="10"/>
<path d="M-148.176 425.577C-107.478 372.032 -37.296 345.42 31.626 352.26C46.242 353.65 60.984 356.535 75.348 360.917C118.062 374.17 157.374 399.713 197.316 425.577C219.24 439.898 241.542 453.685 265.986 463.303C272.412 465.868 278.838 468.113 285.264 469.93C321.552 480.617 357.84 480.297 392.364 470.357C428.148 460.097 461.79 442.356 496.818 426.004C514.584 417.668 532.224 409.973 549.738 402.919C611.478 378.017 679.644 361.238 746.802 357.07C779.94 355.146 811.44 354.825 841.554 359.421C878.22 364.978 909.468 376.307 941.724 383.147C948.78 384.643 955.962 385.926 963.396 386.888C989.604 390.201 1018.84 389.667 1045.8 377.162C1082.97 359.955 1108.17 325.114 1139.04 299.571C1143.2 296.151 1147.48 292.838 1151.89 289.738C1209.47 248.698 1286.59 234.057 1362.19 246.133C1369.62 247.309 1377.05 248.698 1384.36 250.408C1458.32 267.188 1527.37 313.358 1571.09 376.628" stroke="#D5E2E0" stroke-miterlimit="10"/>
<path d="M-145.404 447.272C-105.966 392.979 -36.918 364.978 31.626 369.894C46.242 370.963 60.984 373.314 75.348 377.376C118.314 389.453 158.382 413.927 198.702 439.47C220.878 453.471 243.306 467.258 267.75 476.876C274.176 479.441 280.602 481.579 287.028 483.503C323.442 494.083 359.856 493.763 394.254 483.289C429.786 472.388 463.05 454.112 498.078 437.546C515.844 429.103 533.61 421.515 551.25 414.675C613.368 390.521 682.038 375.666 749.322 371.711C782.712 369.788 814.212 369.146 844.074 372.673C880.614 376.948 911.358 386.353 943.236 391.269C950.166 392.338 957.222 393.3 964.53 393.834C990.234 395.865 1018.96 394.369 1045.67 381.544C1082.59 363.803 1108.55 329.496 1139.92 304.487C1144.21 301.174 1148.49 297.968 1153.03 294.868C1211.49 254.897 1288.73 241.644 1364.45 253.828C1371.89 255.004 1379.32 256.5 1386.76 258.103C1460.97 274.776 1530.4 320.732 1574.75 383.895" stroke="#D5E2E0" stroke-miterlimit="10"/>
<path d="M-142.632 468.861C-104.58 413.82 -36.666 384.323 31.5 387.422C46.116 388.063 60.858 390.094 75.348 393.728C118.566 404.629 159.39 428.034 200.214 453.257C222.642 467.044 245.196 480.724 269.766 490.343C276.192 492.908 282.618 495.045 289.17 496.969C325.71 507.549 362.25 507.122 396.396 496.114C431.676 484.678 464.562 465.761 499.464 449.089C517.356 440.539 535.122 433.058 552.888 426.431C615.384 402.919 684.558 390.094 751.968 386.353C785.61 384.536 817.11 383.361 846.72 385.926C883.008 389.025 913.5 396.293 944.748 399.499C951.552 400.14 958.482 400.781 965.538 400.995C990.738 401.743 1019.09 399.178 1045.55 386.033C1082.34 367.757 1108.93 333.984 1140.8 309.617C1145.09 306.304 1149.5 303.204 1154.03 300.319C1213.38 261.523 1290.87 249.446 1366.72 261.737C1374.16 262.913 1381.59 264.409 1389.02 266.012C1463.62 282.684 1533.29 328.213 1578.28 391.269" stroke="#D5E2E0" stroke-miterlimit="10"/>
<path d="M-139.86 490.45C-103.068 434.661 -36.288 403.774 31.5 405.057C46.116 405.377 60.858 406.98 75.474 410.187C119.07 419.912 160.524 442.249 201.726 467.151C224.28 480.724 247.086 494.404 271.782 503.916C278.208 506.374 284.76 508.619 291.186 510.542C327.852 521.123 364.518 520.589 398.538 508.939C433.692 496.862 466.074 477.304 500.976 460.525C518.868 451.868 536.886 444.493 554.652 438.081C617.526 415.317 687.204 404.415 754.74 400.782C788.634 399.072 820.134 397.362 849.492 398.858C885.528 400.675 915.642 405.912 946.512 407.301C953.19 407.622 959.994 407.728 966.924 407.622C991.62 407.087 1019.47 403.56 1045.8 390.094C1082.47 371.284 1109.56 337.939 1142.06 314.213C1146.47 311.007 1151.01 308.014 1155.55 305.129C1215.77 267.509 1293.39 256.714 1369.49 269.112C1376.93 270.287 1384.49 271.784 1391.92 273.387C1466.77 289.952 1536.7 335.267 1582.56 398.11" stroke="#D5E2E0" stroke-miterlimit="10"/>
<path d="M-136.962 512.038C-101.43 455.501 -35.91 424.615 31.626 422.584C46.242 422.156 60.984 423.653 75.6 426.538C119.448 435.088 161.658 456.356 203.364 480.938C226.17 494.297 249.102 507.87 273.798 517.489C280.224 519.947 286.776 522.191 293.328 524.115C330.12 534.696 366.912 534.055 400.806 521.871C435.708 509.26 467.712 489.06 502.614 472.174C520.506 463.517 538.65 456.143 556.542 449.944C619.794 427.928 689.976 418.95 757.638 415.53C791.784 413.927 823.158 411.79 852.516 412.217C888.426 412.858 918.162 416.065 948.528 415.53C955.08 415.423 961.758 415.21 968.562 414.675C992.628 412.858 1020.1 408.37 1046.18 394.476C1082.59 375.131 1110.44 342.321 1143.45 319.129C1147.86 316.03 1152.52 313.037 1157.18 310.258C1218.29 273.707 1296.04 264.195 1372.27 276.806C1379.83 278.089 1387.26 279.478 1394.69 281.081C1469.79 297.54 1540.1 342.535 1586.59 405.27" stroke="#D5E2E0" stroke-miterlimit="10"/>
<path d="M-134.19 533.734C-100.044 476.449 -35.532 442.569 31.626 440.218C46.242 439.684 60.984 440.539 75.726 442.997C119.826 450.371 162.792 470.571 205.002 494.831C227.934 508.084 251.118 521.55 275.94 531.062C282.492 533.52 288.918 535.764 295.47 537.581C332.514 548.162 369.306 547.414 403.074 534.589C437.724 521.443 469.224 500.602 504.252 483.502C522.144 474.739 540.414 467.471 558.432 461.486C622.062 440.111 692.622 433.164 760.536 429.958C794.934 428.462 826.308 425.79 855.414 425.256C891.072 424.614 920.43 425.79 950.292 423.546C956.718 423.011 963.27 422.477 969.948 421.622C993.51 418.522 1020.6 412.965 1046.43 398.751C1082.72 378.872 1111.07 346.596 1144.71 324.045C1149.25 321.052 1153.91 318.167 1158.7 315.495C1220.69 280.119 1298.68 271.89 1375.04 284.608C1382.6 285.891 1390.03 287.28 1397.47 288.99C1472.94 305.449 1543.5 350.122 1590.75 412.644" stroke="#D5E2E0" stroke-miterlimit="10"/>
<path d="M-131.418 555.322C-98.532 497.396 -35.28 461.914 31.5 457.852C46.116 456.997 60.858 457.318 75.726 459.456C120.078 465.654 163.8 484.785 206.388 508.618C229.572 521.657 252.882 535.016 277.83 544.528C284.382 546.986 290.934 549.231 297.486 551.047C334.656 561.628 371.574 560.88 405.216 547.414C439.74 533.627 470.736 512.145 505.764 495.045C523.782 486.174 542.052 479.014 560.196 473.136C624.204 452.509 695.268 447.486 763.308 444.493C797.958 443.104 829.332 439.898 858.186 438.401C893.718 436.478 922.698 435.729 952.056 431.561C958.356 430.706 964.782 429.744 971.334 428.462C994.392 423.973 1020.98 417.561 1046.68 403.026C1082.72 382.613 1111.82 350.871 1146.1 328.854C1150.76 325.862 1155.42 323.083 1160.33 320.518C1223.08 286.318 1301.33 279.264 1377.94 292.196C1385.5 293.479 1393.06 294.868 1400.49 296.578C1476.22 312.93 1547.15 357.283 1595.03 419.698" stroke="#D5E2E0" stroke-miterlimit="10"/>
<path d="M-128.646 576.912C-97.02 518.237 -34.902 481.259 31.5 475.38C46.116 474.098 60.984 474.098 75.852 475.808C120.582 480.831 164.934 498.893 208.026 522.405C231.462 535.23 254.772 548.483 279.846 557.995C286.398 560.453 292.95 562.697 299.502 564.514C336.798 575.095 373.716 574.24 407.232 560.239C441.504 545.918 472.122 523.795 507.024 506.481C525.042 497.504 543.438 490.45 561.708 484.785C626.094 464.8 697.662 461.807 765.828 459.029C800.73 457.746 831.978 454.112 860.706 451.547C895.986 448.448 924.588 445.669 953.568 439.577C959.742 438.295 966.042 436.905 972.342 435.302C994.896 429.531 1020.98 422.157 1046.43 407.194C1082.34 386.14 1111.95 355.039 1146.85 333.664C1151.51 330.779 1156.43 328.107 1161.34 325.542C1224.97 292.41 1303.34 286.746 1380.08 299.785C1387.64 301.067 1395.2 302.564 1402.63 304.167C1478.61 320.519 1549.93 364.551 1598.44 426.859" stroke="#D5E2E0" stroke-miterlimit="10"/>
<path d="M-125.874 598.607C-95.634 539.185 -34.65 500.71 31.5 493.015C46.116 491.305 60.984 490.984 75.852 492.266C120.834 496.114 165.942 513.107 209.412 536.299C232.974 548.91 256.536 562.163 281.736 571.568C288.288 574.026 294.84 576.163 301.518 578.087C338.94 588.561 375.984 587.706 409.374 573.064C443.394 558.208 473.634 535.444 508.536 518.023C526.554 508.939 545.076 501.992 563.472 496.541C628.236 477.304 700.308 476.235 768.6 473.563C803.754 472.281 835.002 468.22 863.478 464.693C898.632 460.311 926.856 455.501 955.206 447.7C961.254 445.99 967.428 444.28 973.602 442.249C995.526 435.195 1021.23 426.752 1046.56 411.576C1082.34 389.987 1112.58 359.314 1147.99 338.58C1152.77 335.801 1157.69 333.13 1162.73 330.671C1227.24 298.716 1305.86 294.334 1382.72 307.373C1390.28 308.655 1397.84 310.151 1405.4 311.755C1481.76 328.106 1553.45 371.925 1602.72 434.02" stroke="#D5E2E0" stroke-miterlimit="10"/>
<path d="M-123.102 620.196C-94.122 560.025 -34.272 520.054 31.374 510.649C45.864 508.511 60.858 507.763 75.852 508.618C121.086 511.29 166.95 527.214 210.924 550.086C234.738 562.483 258.426 575.629 283.752 585.034C290.304 587.492 296.982 589.629 303.66 591.553C341.334 602.027 378.378 601.065 411.642 585.889C445.536 570.499 475.272 546.986 510.174 529.566C528.318 520.481 546.84 513.534 565.362 508.298C630.504 489.808 703.08 490.663 771.498 488.205C806.904 487.029 838.152 482.434 866.376 477.838C901.278 472.174 929.124 465.441 957.096 455.715C963.018 453.684 969.066 451.547 975.114 449.196C996.534 440.859 1021.86 431.454 1046.81 415.851C1082.34 393.728 1113.34 363.589 1149.25 343.389C1154.16 340.718 1159.07 338.153 1164.11 335.801C1229.51 304.914 1308.26 301.815 1385.24 315.068C1392.8 316.35 1400.49 317.846 1407.92 319.449C1484.53 335.588 1556.48 379.086 1606.37 441.073" stroke="#D5E2E0" stroke-miterlimit="10"/>
<path d="M-120.33 641.785C-92.61 580.866 -34.02 539.398 31.374 528.176C45.864 525.718 60.858 524.543 75.978 524.97C121.59 526.466 168.084 541.322 212.562 563.873C236.628 576.056 260.442 589.202 285.768 598.5C292.32 600.958 298.998 603.096 305.676 605.02C343.476 615.493 380.646 614.425 413.784 598.714C447.426 582.683 476.784 558.636 511.686 541.001C529.83 531.81 548.478 524.97 567.126 519.947C632.646 502.099 705.6 504.985 774.27 502.74C809.928 501.671 841.176 496.541 869.148 490.984C903.798 484.144 931.392 475.38 958.734 463.731C964.53 461.273 970.452 458.815 976.374 456.036C997.29 446.417 1022.11 436.05 1046.93 420.126C1082.34 397.468 1113.84 367.864 1150.38 348.306C1155.29 345.634 1160.33 343.176 1165.5 340.931C1231.65 311.22 1310.65 309.403 1387.89 322.763C1395.58 324.045 1403.14 325.541 1410.7 327.145C1487.56 343.283 1559.88 386.46 1610.53 448.234" stroke="#D5E2E0" stroke-miterlimit="10"/>
<path d="M-117.558 663.48C-91.224 601.813 -33.642 558.743 31.374 545.811C45.864 542.925 60.858 541.322 75.978 541.429C121.842 541.749 169.092 555.643 213.948 577.766C238.14 589.736 262.206 602.775 287.658 612.18C294.336 614.638 300.888 616.776 307.692 618.593C345.618 629.066 382.914 627.891 415.926 611.539C449.316 594.973 478.296 570.285 513.072 552.544C531.216 543.246 549.99 536.513 568.764 531.703C634.662 514.603 708.12 519.413 776.916 517.382C812.826 516.42 843.948 510.756 871.92 504.236C906.444 496.114 933.534 485.426 960.498 471.96C966.168 469.074 971.964 466.189 977.76 463.089C998.172 452.188 1022.49 440.753 1047.19 424.508C1082.34 401.316 1114.6 372.246 1151.64 353.222C1156.68 350.657 1161.85 348.306 1167.01 346.061C1234.04 317.419 1313.3 316.884 1390.66 330.458C1398.35 331.847 1405.91 333.236 1413.47 334.839C1490.58 350.871 1563.28 393.728 1614.56 455.394" stroke="#D5E2E0" stroke-miterlimit="10"/>
<path d="M-114.66 685.069C-89.586 622.654 -33.264 578.087 31.374 563.445C45.864 560.132 60.858 558.208 76.104 557.888C122.22 557.033 170.226 569.858 215.586 591.66C240.03 603.416 264.222 616.348 289.8 625.753C296.478 628.211 303.156 630.349 309.834 632.166C347.886 642.64 385.308 641.357 418.194 624.471C451.458 607.371 479.934 581.935 514.71 564.086C532.98 554.681 551.754 548.055 570.78 543.46C637.182 527.001 711.018 533.841 779.94 532.024C816.102 531.169 847.224 525.077 874.944 517.489C909.216 508.084 936.054 495.473 962.514 480.083C968.058 476.876 973.728 473.563 979.398 470.143C999.18 457.96 1023.25 445.562 1047.56 428.996C1082.59 405.27 1115.35 376.735 1153.03 358.245C1158.19 355.787 1163.36 353.436 1168.65 351.298C1236.56 323.831 1315.94 324.58 1393.43 338.26C1401.12 339.649 1408.68 341.038 1416.37 342.641C1493.86 358.673 1566.81 401.209 1618.72 462.769" stroke="#D5E2E0" stroke-miterlimit="10"/>
<path d="M-111.888 706.658C-88.074 643.601 -32.886 597.431 31.374 580.973C45.864 577.232 60.858 574.881 76.23 574.239C122.724 572.209 171.36 583.965 217.224 605.447C241.794 616.989 266.112 629.921 291.816 639.219C298.494 641.678 305.172 643.815 311.976 645.632C350.154 656.106 387.702 654.716 420.336 637.189C453.348 619.448 481.446 593.477 516.222 575.522C534.492 566.01 553.392 559.491 572.544 555.109C639.324 539.398 713.664 548.162 782.712 546.452C819 545.704 850.248 539.078 877.716 530.528C911.862 519.84 938.322 505.305 964.152 488.098C969.57 484.464 975.114 480.831 980.532 476.983C999.81 463.517 1023.37 450.158 1047.56 433.164C1082.34 408.797 1115.86 380.903 1154.16 363.054C1159.33 360.703 1164.62 358.459 1170.04 356.428C1238.83 330.03 1318.34 332.061 1396.08 345.954C1403.77 347.344 1411.45 348.84 1419.01 350.336C1496.75 366.261 1570.09 408.476 1622.75 469.929" stroke="#D5E2E0" stroke-miterlimit="10"/>
<path d="M-109.116 728.353C-86.688 664.549 -32.634 616.776 31.374 598.607C45.864 594.546 60.858 591.767 76.23 590.698C122.976 587.492 172.242 598.18 218.61 619.341C243.432 630.67 267.876 643.495 293.706 652.793C300.384 655.251 307.062 657.388 313.866 659.205C352.296 669.679 389.844 668.183 422.352 650.121C455.238 631.845 482.832 605.233 517.608 587.065C535.878 577.446 554.904 571.033 574.182 566.758C641.34 551.796 716.184 562.483 785.358 560.987C821.898 560.346 853.146 553.185 880.362 543.566C914.256 531.703 940.464 515.138 965.79 496.007C971.082 492.053 976.5 487.991 981.792 483.716C1000.57 468.968 1023.62 454.54 1047.69 437.333C1082.34 412.431 1116.36 384.964 1155.29 367.757C1160.59 365.406 1165.88 363.268 1171.42 361.345C1240.97 336.015 1320.86 339.435 1398.73 353.329C1406.41 354.718 1414.1 356.215 1421.78 357.711C1499.78 373.528 1573.49 415.53 1626.79 476.77" stroke="#D5E2E0" stroke-miterlimit="10"/>
<path d="M-106.344 749.942C-85.176 685.39 -32.256 636.12 31.374 616.241C45.864 611.753 60.858 608.546 76.356 607.157C123.354 602.668 173.376 612.394 220.248 633.235C245.196 644.35 269.892 657.175 295.848 666.366C302.526 668.717 309.33 670.961 316.134 672.778C354.69 683.145 392.364 681.756 424.746 663.053C457.38 644.243 484.47 616.883 519.246 598.714C537.642 589.095 556.668 582.683 576.072 578.621C643.608 564.3 718.83 577.018 788.256 575.736C825.048 575.095 856.17 567.506 883.26 556.926C916.902 543.78 942.732 525.291 967.68 504.236C972.846 499.855 978.138 495.366 983.304 490.877C1001.57 474.846 1024.13 459.456 1047.94 441.821C1082.34 416.385 1117.12 389.453 1156.55 372.78C1161.85 370.536 1167.39 368.505 1172.81 366.581C1243.24 342.428 1323.25 347.023 1401.25 361.131C1408.93 362.52 1416.62 364.016 1424.3 365.513C1502.68 381.33 1576.64 422.905 1630.69 484.037" stroke="#D5E2E0" stroke-miterlimit="10"/>
<path d="M-103.572 771.531C-83.664 706.23 -32.004 655.358 31.248 633.769C45.738 628.853 60.858 625.326 76.356 623.509C123.732 617.845 174.384 626.608 221.634 647.021C246.834 657.923 271.656 670.641 297.612 679.832C304.29 682.183 311.094 684.321 317.898 686.244C356.58 696.611 394.38 695.115 426.636 675.771C459.144 656.426 485.73 628.425 520.506 610.043C538.902 600.317 558.054 594.011 577.584 590.164C645.498 576.591 721.224 591.233 790.776 590.164C827.82 589.63 858.942 581.507 885.78 569.964C919.296 555.536 944.748 535.123 969.066 512.252C974.106 507.443 979.272 502.633 984.312 497.717C1002.08 480.403 1024.13 463.944 1047.82 446.096C1082.09 420.126 1117.49 393.728 1157.44 377.696C1162.85 375.559 1168.4 373.528 1173.94 371.711C1245.26 348.626 1325.39 354.611 1403.64 368.826C1411.33 370.215 1419.14 371.711 1426.82 373.314C1505.45 389.025 1579.79 430.386 1634.47 491.305" stroke="#D5E2E0" stroke-miterlimit="10"/>
<path d="M-100.8 793.226C-82.278 727.178 -31.752 674.702 31.248 651.51C45.738 646.166 60.858 642.212 76.356 639.968C123.984 633.128 175.392 640.823 223.146 660.808C248.598 671.496 273.546 684.107 299.628 693.298C306.306 695.649 313.11 697.787 320.04 699.604C358.848 709.971 396.774 708.368 428.904 688.489C461.16 668.503 487.368 639.968 522.144 621.478C540.54 611.646 559.818 605.447 579.474 601.813C647.766 588.881 723.996 605.554 793.674 604.699C830.97 604.271 862.092 595.614 888.678 583.11C921.942 567.399 947.142 545.063 970.956 520.268C975.87 515.138 980.91 509.901 985.824 504.557C1003.09 485.961 1024.76 468.54 1048.19 450.264C1082.21 423.759 1118.25 397.896 1158.82 382.399C1164.37 380.261 1169.91 378.444 1175.58 376.734C1247.65 354.718 1328.17 361.986 1406.54 376.414C1414.35 377.803 1422.04 379.299 1429.72 380.903C1508.6 396.613 1583.32 437.653 1638.63 498.465" stroke="#D5E2E0" stroke-miterlimit="10"/>
<path d="M-98.028 814.815C-80.766 748.019 -31.374 694.047 31.248 669.038C45.612 663.267 60.858 658.992 76.482 656.32C124.362 648.304 176.526 654.93 224.784 674.595C250.362 685.069 275.562 697.68 301.77 706.872C308.574 709.223 315.378 711.36 322.182 713.177C361.116 723.544 399.168 721.834 431.046 701.421C463.05 680.901 488.88 651.617 523.656 633.128C542.178 623.189 561.456 617.097 581.238 613.677C649.908 601.493 726.642 620.089 796.446 619.448C833.994 619.127 864.99 610.043 891.576 596.47C924.588 579.583 949.536 555.216 972.72 528.497C977.508 522.94 982.296 517.382 987.084 511.718C1003.72 491.839 1025.01 473.457 1048.19 454.86C1082.09 427.714 1118.75 402.492 1159.83 387.529C1165.37 385.499 1171.04 383.682 1176.84 382.079C1249.79 361.238 1330.43 369.788 1408.93 384.323C1416.74 385.712 1424.43 387.209 1432.24 388.812C1511.5 404.415 1586.47 445.135 1642.54 505.84" stroke="#D5E2E0" stroke-miterlimit="10"/>
<path d="M-95.256 836.404C-79.254 768.859 -31.122 713.284 31.122 686.565C45.486 680.367 60.732 675.664 76.482 672.672C124.614 663.48 177.534 669.038 226.17 688.382C252 698.749 277.2 711.147 303.534 720.338C310.338 722.689 317.142 724.827 324.072 726.643C363.258 737.01 401.31 735.3 433.062 714.139C464.94 693.085 490.266 663.16 524.916 644.457C543.438 634.41 562.842 628.425 582.75 625.219C651.798 613.783 729.036 634.303 798.966 633.769C836.766 633.555 867.762 623.937 894.096 609.402C926.982 591.233 951.552 564.942 974.232 536.406C978.894 530.528 983.556 524.543 988.218 518.451C1004.35 497.29 1025.14 477.838 1048.19 458.922C1081.84 431.241 1119.13 406.446 1160.84 392.232C1166.51 390.308 1172.3 388.598 1178.1 386.995C1251.94 367.223 1332.7 377.055 1411.45 391.804C1419.26 393.3 1427.08 394.797 1434.76 396.293C1514.27 411.79 1589.62 452.295 1646.32 512.787" stroke="#D5E2E0" stroke-miterlimit="10"/>
<path d="M-92.358 858.1C-77.742 789.913 -30.744 732.628 31.248 704.306C45.612 697.68 60.858 692.657 76.734 689.237C125.244 678.763 178.794 683.359 227.934 702.383C253.89 712.536 279.342 724.826 305.802 734.018C312.606 736.369 319.41 738.507 326.34 740.323C365.652 750.69 403.83 748.873 435.456 727.178C467.208 705.589 492.03 675.023 526.68 656.213C545.202 646.166 564.732 640.182 584.766 637.189C654.192 626.395 731.808 648.945 801.99 648.625C840.042 648.518 870.912 638.258 897.12 622.761C929.754 603.203 954.072 574.988 976.248 544.635C980.784 538.33 985.446 531.917 989.856 525.505C1005.61 503.061 1025.77 482.648 1048.57 463.41C1081.96 435.195 1120.01 410.935 1162.35 397.255C1168.15 395.438 1173.94 393.728 1179.86 392.231C1254.46 373.421 1335.6 384.75 1414.35 399.499C1422.16 400.995 1429.97 402.491 1437.66 403.988C1517.42 419.485 1593.14 459.563 1650.6 519.947" stroke="#D5E2E0" stroke-miterlimit="10"/>
<path d="M-89.586 879.688C-76.23 810.754 -30.492 751.866 31.248 721.834C45.612 714.887 60.858 709.329 76.734 705.589C125.496 693.833 179.802 697.573 229.446 716.169C255.654 726.109 281.232 738.399 307.818 747.484C314.622 749.835 321.552 751.973 328.482 753.789C367.92 764.156 406.224 762.233 437.724 739.896C469.224 717.773 493.668 686.458 528.318 667.541C546.84 657.388 566.496 651.617 586.656 648.624C656.46 638.578 734.58 663.053 804.888 662.946C843.192 662.946 874.062 652.258 900.018 635.693C932.4 614.959 956.466 584.713 978.012 552.437C982.422 545.704 986.958 538.971 991.242 532.131C1006.36 508.404 1026.14 486.923 1048.82 467.364C1081.96 438.508 1120.64 414.889 1163.61 401.743C1169.41 399.926 1175.33 398.43 1181.38 397.041C1256.85 379.406 1338.12 391.911 1417.12 406.873C1424.93 408.369 1432.75 409.866 1440.56 411.362C1520.57 426.752 1596.67 466.616 1654.76 526.787" stroke="#D5E2E0" stroke-miterlimit="10"/>
<path d="M-86.814 901.277C-74.844 831.595 -30.24 771.21 31.248 739.361C45.612 731.987 60.858 726.109 76.86 721.941C125.874 709.009 180.936 711.681 230.958 729.956C257.418 739.682 283.122 751.866 309.708 760.95C316.512 763.301 323.442 765.439 330.372 767.256C369.936 777.516 408.366 775.592 439.74 752.721C470.988 729.956 495.054 698.108 529.704 679.084C548.352 668.824 568.008 663.16 588.294 660.381C658.476 650.976 737.1 677.588 807.66 677.588C846.216 677.588 877.086 666.473 902.79 648.945C934.92 626.929 958.734 594.76 979.776 560.666C984.186 553.613 988.344 546.452 992.628 539.291C1007.24 514.283 1026.52 491.839 1049.08 471.96C1082.09 442.57 1121.4 419.485 1164.87 406.98C1170.79 405.27 1176.71 403.774 1182.76 402.491C1259.12 385.926 1340.51 399.82 1419.77 414.889C1427.58 416.385 1435.39 417.881 1443.2 419.378C1523.59 434.768 1599.95 474.205 1658.79 534.268" stroke="#D5E2E0" stroke-miterlimit="10"/>
<path d="M-84.042 922.973C-73.332 852.542 -30.114 790.448 31.122 757.103C45.36 749.301 60.732 742.995 76.86 738.507C126.126 724.399 181.944 726.002 232.47 743.957C259.056 753.469 285.012 765.653 311.724 774.63C318.528 776.982 325.458 779.119 332.514 780.829C372.33 791.089 410.634 789.059 441.882 765.653C473.004 742.354 496.566 709.864 531.09 690.627C549.738 680.26 569.52 674.702 589.932 672.137C660.492 663.481 739.62 692.016 810.306 692.23C849.114 692.337 879.984 680.687 905.436 662.198C937.44 638.899 960.876 604.806 981.288 568.789C985.572 561.308 989.604 553.827 993.762 546.239C1007.87 519.947 1026.77 496.542 1048.95 476.235C1081.84 446.31 1121.78 423.76 1165.75 411.79C1171.8 410.187 1177.85 408.797 1183.9 407.515C1261.13 392.125 1342.78 407.194 1422.04 422.477C1429.85 423.974 1437.79 425.47 1445.6 426.966C1526.24 442.249 1602.97 481.472 1662.44 541.429" stroke="#D5E2E0" stroke-miterlimit="10"/>
<path d="M-81.27 944.562C-71.82 873.383 -29.736 809.792 31.122 774.63C89.208 741.072 166.32 734.338 233.982 757.637C267.624 769.287 300.132 785.425 334.53 794.295C374.472 804.555 412.902 802.418 444.024 778.371C474.894 754.538 498.078 721.3 532.602 702.062C615.888 655.678 721.728 706.23 813.078 706.765C911.232 707.299 957.474 629.708 995.148 553.078C1031.56 479.121 1102.75 427.714 1185.41 412.538C1271.21 396.827 1361.56 418.202 1448.37 434.554C1529.26 449.837 1606.25 488.74 1666.48 548.483" stroke="#D5E2E0" stroke-miterlimit="10"/>
</g>
</svg>
