<svg width="207" height="207" viewBox="0 0 207 207" fill="none" xmlns="http://www.w3.org/2000/svg">
<path d="M180.258 36.4822C197.203 56.7678 208.42 83.4333 206.807 109.816C205.194 136.198 193.549 160.964 174.259 179.034C154.969 197.105 129.497 207.11 103.065 206.999C76.6336 206.888 51.2461 196.669 32.1088 178.437C12.9715 160.205 1.5347 135.342 0.143667 108.947C-1.24737 82.5518 7.5128 56.6246 24.6277 36.4822C41.7427 16.3398 65.9154 3.50865 92.1888 0.619947C118.462 -2.26876 145.918 6.05727 167 22L148.072 41.5533C132.408 29.7078 114.617 24.9137 95.0958 27.06C75.5746 29.2063 57.6143 38.7399 44.8979 53.7057C32.1814 68.6715 25.6726 87.9355 26.7062 107.547C27.7397 127.159 36.2373 145.632 50.4563 159.178C64.6753 172.724 83.5383 180.317 103.177 180.4C122.816 180.483 141.742 173.048 156.074 159.622C170.407 146.196 179.059 127.795 180.258 108.193C181.456 88.5904 173.914 70.4066 161.324 55.3344L180.258 36.4822Z" fill="#FFCB00"/>
<path d="M153.229 46.7076C152.671 46.1149 152.322 45.5078 152.181 44.8864C152.031 44.2573 152.075 43.6297 152.311 43.0038C152.54 42.37 152.945 41.7539 153.528 41.1553C154.127 40.5408 154.736 40.1233 155.355 39.9029C155.974 39.6825 156.563 39.636 157.123 39.7633C157.691 39.8827 158.198 40.1605 158.644 40.5969C159.01 40.9553 159.247 41.3192 159.354 41.6886C159.46 42.058 159.48 42.4127 159.414 42.7527C159.355 43.0846 159.264 43.3776 159.141 43.6314L159.189 43.6782C159.564 43.4844 159.936 43.3576 160.306 43.298C160.682 43.2304 161.053 43.2574 161.416 43.3793C161.787 43.4931 162.156 43.7292 162.522 44.0877C163.008 44.5629 163.325 45.0994 163.474 45.697C163.623 46.2789 163.591 46.8866 163.378 47.5201C163.165 48.1537 162.764 48.7737 162.173 49.3803C161.575 49.9948 160.955 50.4558 160.313 50.7632C159.671 51.0706 159.012 51.1653 158.333 51.0473C157.663 50.9213 156.978 50.5312 156.277 49.8771L158.271 47.83C158.637 48.1884 158.982 48.3539 159.304 48.3263C159.626 48.283 159.962 48.0818 160.312 47.7227C160.506 47.5232 160.637 47.3244 160.706 47.1264C160.766 46.9206 160.768 46.7194 160.71 46.523C160.653 46.3265 160.533 46.1386 160.349 45.9594C160.007 45.6244 159.663 45.5142 159.319 45.6287C158.966 45.7355 158.541 46.0443 158.043 46.555L157.67 46.9381L156.117 45.4188L156.49 45.0357C156.7 44.8202 156.883 44.6011 157.037 44.3784C157.192 44.14 157.276 43.9023 157.288 43.6656C157.293 43.421 157.176 43.1818 156.937 42.9481C156.651 42.6676 156.362 42.533 156.071 42.5444C155.788 42.5478 155.518 42.6812 155.261 42.9446C155.051 43.1601 154.924 43.3706 154.879 43.5762C154.835 43.7661 154.845 43.9552 154.91 44.1437C154.983 44.3243 155.091 44.4926 155.235 44.6486L153.229 46.7076Z" fill="#FFCB00"/>
<path d="M168.61 43.0774C168.003 43.6999 167.336 44.1299 166.607 44.3674C165.878 44.6049 165.151 44.6492 164.425 44.5001C163.699 44.3354 163.045 43.9686 162.464 43.3998C162.042 42.9868 161.69 42.4784 161.407 41.8745C161.132 41.2626 160.927 40.5316 160.79 39.6814L160.037 34.9462L162.275 32.6478L163.098 38.2221L163.436 41.7791C162.788 40.9272 162.479 40.0791 162.508 39.2348C162.537 38.3905 162.859 37.6531 163.473 37.0226C163.947 36.5358 164.49 36.1941 165.101 35.9974C165.705 35.793 166.33 35.7657 166.977 35.9157C167.616 36.0579 168.226 36.4133 168.808 36.9821C169.405 37.5665 169.783 38.2244 169.941 38.9561C170.091 39.6799 170.049 40.4021 169.814 41.1226C169.578 41.8432 169.177 42.4948 168.61 43.0774ZM164.576 41.3513C164.807 41.5773 165.052 41.732 165.313 41.8157C165.582 41.8913 165.845 41.8921 166.104 41.818C166.371 41.7359 166.616 41.5791 166.842 41.3477C167.067 41.1163 167.214 40.87 167.282 40.6089C167.349 40.3478 167.338 40.0877 167.248 39.8284C167.159 39.5692 166.998 39.3267 166.768 39.1007C166.537 38.8748 166.295 38.7239 166.042 38.648C165.781 38.5644 165.522 38.5597 165.263 38.6338C165.004 38.7079 164.762 38.8606 164.537 39.0921C164.311 39.3235 164.161 39.5738 164.085 39.8428C164.018 40.1039 164.025 40.3681 164.107 40.6353C164.188 40.8867 164.345 41.1254 164.576 41.3513Z" fill="#FFCB00"/>
<path d="M167.649 35.3765C167.012 34.7532 166.489 34.1246 166.08 33.4906C165.671 32.8567 165.408 32.2249 165.29 31.5954C165.173 30.9658 165.224 30.3381 165.445 29.7124C165.665 29.0709 166.078 28.4389 166.685 27.8164C167.291 27.1939 167.907 26.7684 168.534 26.54C169.153 26.3039 169.778 26.2372 170.409 26.34C171.047 26.4349 171.687 26.6796 172.329 27.0741C172.972 27.4686 173.611 27.9775 174.248 28.6008C174.893 29.2319 175.42 29.8645 175.829 30.4984C176.238 31.1324 176.498 31.7681 176.608 32.4057C176.725 33.0352 176.674 33.6629 176.453 34.2886C176.233 34.9144 175.819 35.5385 175.213 36.161C174.607 36.7835 173.99 37.2168 173.364 37.461C172.745 37.6972 172.12 37.7638 171.489 37.661C170.859 37.5582 170.222 37.3095 169.58 36.915C168.938 36.5205 168.294 36.0076 167.649 35.3765ZM172.185 30.7197C171.858 30.4003 171.536 30.1084 171.218 29.844C170.892 29.5719 170.571 29.3668 170.255 29.2286C169.946 29.0825 169.642 29.027 169.344 29.0621C169.045 29.0972 168.752 29.2625 168.464 29.5577C168.177 29.853 168.019 30.1507 167.991 30.4508C167.963 30.7508 168.022 31.0577 168.168 31.3714C168.321 31.6772 168.537 31.9901 168.816 32.3101C169.088 32.6223 169.386 32.9382 169.713 33.2576C170.055 33.5927 170.389 33.8962 170.715 34.1684C171.033 34.4327 171.347 34.638 171.655 34.7841C171.964 34.9145 172.267 34.9621 172.566 34.927C172.856 34.884 173.146 34.7149 173.433 34.4196C173.721 34.1243 173.882 33.8306 173.918 33.5383C173.946 33.2382 173.887 32.9392 173.742 32.6413C173.597 32.3275 173.388 32.0145 173.117 31.7023C172.838 31.3823 172.527 31.0548 172.185 30.7197Z" fill="#FFCB00"/>
</svg>
