<svg width="111" height="33" viewBox="0 0 111 33" fill="none" xmlns="http://www.w3.org/2000/svg">
<path d="M11.44 32.28C9.36 32.28 7.54667 31.8533 6 31C4.48 30.12 3.29333 28.8933 2.44 27.32C1.61333 25.7467 1.2 23.9067 1.2 21.8C1.2 19.8267 1.61333 18.08 2.44 16.56C3.29333 15.04 4.46667 13.8533 5.96 13C7.45333 12.1467 9.17333 11.72 11.12 11.72C13.1467 11.72 14.9067 12.1333 16.4 12.96C17.8933 13.76 19.0533 14.9067 19.88 16.4C20.7067 17.8933 21.12 19.64 21.12 21.64C21.12 21.9333 21.1067 22.2533 21.08 22.6C21.0533 22.9467 21.0133 23.3333 20.96 23.76H8.2C8.33333 24.3733 8.56 24.9067 8.88 25.36C9.22667 25.7867 9.64 26.12 10.12 26.36C10.6267 26.5733 11.1867 26.68 11.8 26.68C12.4933 26.68 13.1067 26.5333 13.64 26.24C14.1733 25.9467 14.6 25.52 14.92 24.96L20.84 26.44C20.04 28.3333 18.8267 29.7867 17.2 30.8C15.6 31.7867 13.68 32.28 11.44 32.28ZM13.96 19.92C13.9333 19.36 13.7867 18.8667 13.52 18.44C13.28 18.0133 12.96 17.68 12.56 17.44C12.16 17.2 11.7067 17.0933 11.2 17.12C10.6933 17.1467 10.2267 17.28 9.8 17.52C9.4 17.76 9.05333 18.0933 8.76 18.52C8.49333 18.92 8.33333 19.3867 8.28 19.92H13.96ZM35.6656 32L35.2256 29.52C34.5056 30.3467 33.759 31.0133 32.9856 31.52C32.239 32.0267 31.2256 32.28 29.9456 32.28C28.7723 32.28 27.6923 32.0667 26.7056 31.64C25.7456 31.1867 24.9723 30.5333 24.3856 29.68C23.799 28.8267 23.5056 27.7867 23.5056 26.56C23.5056 24.9067 24.0923 23.5467 25.2656 22.48C26.439 21.4133 28.2923 20.7333 30.8256 20.44L35.2256 19.96V18.8C35.2256 18.4267 35.039 18.0533 34.6656 17.68C34.2923 17.28 33.719 17.08 32.9456 17.08C32.2523 17.08 31.6523 17.2667 31.1456 17.64C30.639 18.0133 30.2923 18.5333 30.1056 19.2L24.5456 17.2C25.159 15.3867 26.199 14.0267 27.6656 13.12C29.1323 12.1867 30.9723 11.72 33.1856 11.72C35.9856 11.72 38.119 12.4133 39.5856 13.8C41.0523 15.1867 41.7856 17.0933 41.7856 19.52V32H35.6656ZM35.2256 23.64L32.1056 24C31.4923 24.08 31.0256 24.28 30.7056 24.6C30.3856 24.92 30.2256 25.3067 30.2256 25.76C30.2256 26.2133 30.4123 26.5867 30.7856 26.88C31.1856 27.1733 31.7323 27.32 32.4256 27.32C32.9856 27.32 33.4656 27.2 33.8656 26.96C34.2923 26.6933 34.6256 26.32 34.8656 25.84C35.1056 25.36 35.2256 24.76 35.2256 24.04V23.64ZM45.5547 12H51.5147L51.9547 14.72C52.4614 14 53.0614 13.4133 53.7547 12.96C54.448 12.48 55.2347 12.16 56.1147 12C57.0214 11.8133 58.0347 11.8133 59.1547 12V18.24C58.4614 18.0267 57.7014 17.96 56.8747 18.04C56.0747 18.12 55.3014 18.3733 54.5547 18.8C53.8347 19.2267 53.248 19.8667 52.7947 20.72C52.3414 21.5733 52.1147 22.68 52.1147 24.04V32H45.5547V12Z" fill="black"/>
<path d="M76.1812 11.8857H83.3784V31.9999H76.1812V11.8857Z" fill="#242424"/>
<path d="M89.4669 11.8857H96.6641V31.9999H89.4669V11.8857Z" fill="#242424"/>
<path d="M102.753 11.8857H109.95V31.9999H102.753V11.8857Z" fill="#242424"/>
<path d="M62.1606 0.402232H69.3579V31.9999H62.1606V0.402232Z" fill="#242424"/>
<path d="M84.2589 4.57143C84.2589 7.09616 82.2122 9.14286 79.6875 9.14286C77.1628 9.14286 75.1161 7.09616 75.1161 4.57143C75.1161 2.0467 77.1628 0 79.6875 0C82.2122 0 84.2589 2.0467 84.2589 4.57143Z" fill="#242424"/>
<path d="M97.4268 4.75402C97.4268 7.27875 95.3801 9.32545 92.8553 9.32545C90.3306 9.32545 88.2839 7.27875 88.2839 4.75402C88.2839 2.22929 90.3306 0.182589 92.8553 0.182589C95.3801 0.182589 97.4268 2.22929 97.4268 4.75402Z" fill="#242424"/>
<path d="M110.773 4.93728C110.773 7.46201 108.727 9.50871 106.202 9.50871C103.677 9.50871 101.63 7.46201 101.63 4.93728C101.63 2.41255 103.677 0.365848 106.202 0.365848C108.727 0.365848 110.773 2.41255 110.773 4.93728Z" fill="#242424"/>
</svg>
