<svg width="49" height="32" viewBox="0 0 49 32" fill="none" xmlns="http://www.w3.org/2000/svg">
<path d="M14.1812 11.8857H21.3784V31.9999H14.1812V11.8857Z" fill="#242424"/>
<path d="M27.4669 11.8857H34.6641V31.9999H27.4669V11.8857Z" fill="#242424"/>
<path d="M40.7526 11.8857H47.9499V31.9999H40.7526V11.8857Z" fill="#242424"/>
<path d="M0.160614 0.402232H7.35787V31.9999H0.160614V0.402232Z" fill="#242424"/>
<path d="M22.2589 4.57143C22.2589 7.09616 20.2122 9.14286 17.6875 9.14286C15.1628 9.14286 13.1161 7.09616 13.1161 4.57143C13.1161 2.0467 15.1628 0 17.6875 0C20.2122 0 22.2589 2.0467 22.2589 4.57143Z" fill="#242424"/>
<path d="M35.4268 4.75402C35.4268 7.27875 33.3801 9.32545 30.8553 9.32545C28.3306 9.32545 26.2839 7.27875 26.2839 4.75402C26.2839 2.22929 28.3306 0.182589 30.8553 0.182589C33.3801 0.182589 35.4268 2.22929 35.4268 4.75402Z" fill="#242424"/>
<path d="M48.7732 4.93728C48.7732 7.46201 46.7265 9.50871 44.2018 9.50871C41.677 9.50871 39.6303 7.46201 39.6303 4.93728C39.6303 2.41255 41.677 0.365848 44.2018 0.365848C46.7265 0.365848 48.7732 2.41255 48.7732 4.93728Z" fill="#242424"/>
</svg>
