<svg width="36" height="37" viewBox="0 0 36 37" fill="none" xmlns="http://www.w3.org/2000/svg">
<g id="behance">
<path id="Vector" d="M11.7045 9.42444C12.588 9.42444 13.383 9.50094 14.112 9.65694C14.8365 9.81144 15.4545 10.0664 15.9765 10.4189C16.491 10.7714 16.893 11.2394 17.1825 11.8274C17.463 12.4079 17.6025 13.1339 17.6025 13.9919C17.6025 14.9219 17.3925 15.6989 16.971 16.3184C16.5465 16.9394 15.921 17.4479 15.087 17.8409C16.2225 18.1694 17.064 18.7439 17.622 19.5599C18.183 20.3834 18.4575 21.3689 18.4575 22.5239C18.4575 23.4614 18.279 24.2669 17.9205 24.9434C17.575 25.6099 17.0738 26.1831 16.4595 26.6144C15.8232 27.0576 15.1124 27.3827 14.361 27.5744C13.5732 27.7812 12.762 27.8851 11.9475 27.8834H3V9.42444H11.7045ZM11.178 16.8824C11.898 16.8824 12.495 16.7114 12.966 16.3649C13.434 16.0229 13.6605 15.4589 13.6605 14.6864C13.6605 14.2574 13.584 13.9034 13.434 13.6259C13.2879 13.359 13.0716 13.137 12.8085 12.9839C12.5331 12.8206 12.2292 12.7112 11.913 12.6614C11.5683 12.5971 11.2181 12.5665 10.8675 12.5699H7.065V16.8824H11.178V16.8824ZM11.4045 24.7409C11.805 24.7409 12.186 24.7064 12.5445 24.6254C12.906 24.5474 13.227 24.4214 13.5 24.2339C13.773 24.0539 13.998 23.8094 14.16 23.4974C14.3235 23.1884 14.403 22.7849 14.403 22.3004C14.403 21.3494 14.1345 20.6729 13.6035 20.2634C13.071 19.8584 12.357 19.6574 11.4825 19.6574H7.065V24.7424H11.4045V24.7409ZM24.252 24.6794C24.8025 25.2164 25.596 25.4864 26.628 25.4864C27.3675 25.4864 28.0065 25.2989 28.545 24.9269C29.076 24.5534 29.4 24.1544 29.5245 23.7419H32.757C32.238 25.3499 31.4505 26.4989 30.3735 27.1904C29.31 27.8849 28.0155 28.2299 26.5035 28.2299C25.4505 28.2299 24.5025 28.0604 23.6535 27.7244C22.8386 27.4071 22.1022 26.9168 21.495 26.2874C20.8978 25.6434 20.4362 24.8859 20.1375 24.0599C19.8092 23.1466 19.6466 22.1819 19.6575 21.2114C19.6575 20.2124 19.824 19.2779 20.151 18.4154C20.4614 17.5817 20.9381 16.8198 21.552 16.1759C22.1595 15.5459 22.8795 15.0494 23.718 14.6849C24.5997 14.3141 25.5485 14.1292 26.505 14.1419C27.636 14.1419 28.6245 14.3609 29.4735 14.8019C30.2968 15.2229 31.0107 15.83 31.5585 16.5749C32.103 17.3144 32.4915 18.1619 32.733 19.1114C32.9745 20.0594 33.0585 21.0494 32.9895 22.0859H23.343C23.3445 23.1419 23.7 24.1424 24.252 24.6794V24.6794ZM28.47 17.6579C28.0335 17.1749 27.2955 16.9139 26.3925 16.9139C25.806 16.9139 25.3215 17.0114 24.9315 17.2124C24.5749 17.3925 24.2585 17.6431 24.0015 17.9489C23.7758 18.2266 23.6084 18.547 23.5095 18.8909C23.423 19.1777 23.3672 19.4729 23.343 19.7714H29.316C29.229 18.8354 28.908 18.1439 28.47 17.6579V17.6579ZM22.593 10.6634H30.0765V12.4859H22.593V10.6634Z" fill="black"/>
</g>
</svg>
