<svg width="87" height="31" viewBox="0 0 87 31" fill="none" xmlns="http://www.w3.org/2000/svg">
<path fill-rule="evenodd" clip-rule="evenodd" d="M85.1248 0.404989C84.3958 0.600923 80.3866 1.67366 76.2153 2.78889C72.0441 3.90419 67.5047 5.11845 66.1278 5.48735C64.7509 5.85625 60.9736 6.86677 57.7338 7.73304C40.1571 12.4327 25.1151 16.4574 23.2004 16.9727C20.5981 17.6731 19.5353 17.8284 17.8253 17.7579C15.1763 17.6488 13.0172 16.8225 11.4665 15.3245C9.83449 13.7479 9.08823 11.6877 9.19647 9.05776C9.2796 7.03804 9.82978 4.96154 10.9122 2.58257C11.169 2.01804 11.3716 1.54922 11.3624 1.54068C11.3532 1.53207 10.9404 2.01355 10.445 2.61055C4.69301 9.54189 1.28569 15.6383 0.524709 20.3602C0.358964 21.3885 0.374942 23.0668 0.559021 23.9702C0.941171 25.8451 1.93211 27.2657 3.76259 28.5624C7.48026 31.1959 12.0347 31.4801 18.1648 29.4611C20.5359 28.6802 23.4347 27.4978 34.2084 22.9167C35.6865 22.2882 38.3539 21.155 40.1357 20.3983C41.9176 19.6416 43.5909 18.9294 43.8542 18.8154C44.1174 18.7015 46.3705 17.7393 48.8611 16.6771C55.2882 13.936 67.4295 8.74512 81.1487 2.87298C84.1455 1.59024 86.66 0.480017 86.7365 0.405869C86.9099 0.237768 86.844 0.0359452 86.6181 0.043382C86.5258 0.0464009 85.8537 0.209128 85.1248 0.404989Z" fill="#2D2D2D"/>
</svg>
