<svg width="125" height="125" viewBox="0 0 125 125" fill="none" xmlns="http://www.w3.org/2000/svg">
<g id="Skills Card Icon">
<path id="Rectangle 19" d="M0.333267 62.8279C0.333267 28.5862 28.0916 0.82782 62.3333 0.82782V0.82782C96.575 0.82782 124.333 28.5862 124.333 62.8279V124.828H0.333267V62.8279Z" fill="#F3AFA8"/>
<path id="Arrow 3" d="M32.5018 98.8837L39.1 98.8837L39.1 92.0557L32.5018 92.0557L32.5018 98.8837ZM87.4351 42.8731C87.4351 42.4112 87.0733 42.0368 86.627 42.0368L79.354 42.0368C78.9077 42.0368 78.5458 42.4112 78.5458 42.8731C78.5458 43.3349 78.9077 43.7093 79.354 43.7093L85.8189 43.7093L85.8189 50.3995C85.8189 50.8613 86.1807 51.2357 86.627 51.2357C87.0733 51.2357 87.4351 50.8613 87.4351 50.3995L87.4351 42.8731ZM36.3723 96.061L87.1984 43.4644L86.0556 42.2817L35.2295 94.8784L36.3723 96.061Z" fill="#2D2D2D"/>
</g>
</svg>
