<svg width="114" height="19" viewBox="0 0 114 19" fill="none" xmlns="http://www.w3.org/2000/svg">
<path fill-rule="evenodd" clip-rule="evenodd" d="M5.15881 0.729082C3.17078 0.884565 1.74211 1.556 0.987533 2.68943C0.526377 3.38216 0.32763 4.0867 0.297896 5.13419C0.281036 5.72806 0.310563 6.08936 0.411601 6.52581C0.661968 7.60723 1.38598 8.48907 2.78509 9.41677C3.28416 9.74766 3.63505 9.95426 4.79465 10.5999C6.24707 11.4085 6.68578 11.7007 7.15901 12.1745C7.50572 12.5217 7.65858 12.7664 7.73729 13.1003C7.83081 13.497 7.77044 14.0499 7.59275 14.424C7.34565 14.9443 6.88304 15.1889 6.14758 15.188C5.29794 15.1869 4.73717 14.8109 4.55769 14.1218C4.52166 13.9835 4.51217 13.7591 4.51217 13.0463V12.1457H2.34153H0.170898V12.8987C0.170898 13.7101 0.201852 14.1429 0.290908 14.5768C0.647635 16.3142 1.87684 17.4472 3.89354 17.8971C5.34004 18.2198 7.20635 18.1842 8.56017 17.8081C9.40981 17.5721 10.0899 17.2047 10.6176 16.6968C11.3053 16.035 11.6391 15.3174 11.7873 14.1825C11.8595 13.6299 11.8591 12.4622 11.7866 11.997C11.5901 10.7361 10.8627 9.79006 9.31002 8.77595C8.79599 8.44022 8.33817 8.17775 7.17343 7.551C5.7384 6.77885 5.21679 6.43907 4.83797 6.0298C4.53551 5.70299 4.42297 5.40338 4.42297 4.92492C4.42297 4.00639 4.97621 3.46212 5.90851 3.46358C6.54371 3.46456 7.00688 3.69961 7.2417 4.14016C7.40167 4.4403 7.42617 4.59403 7.42617 5.29806V5.93111H9.44814H11.4701L11.4698 5.31412C11.4694 4.11212 11.367 3.51835 11.0514 2.88657C10.4594 1.70162 9.21796 0.997943 7.3202 0.771602C6.85128 0.715671 5.63588 0.691765 5.15881 0.729082ZM57.7671 0.817662C55.5888 0.987239 54.1072 1.75558 53.4165 3.07378C53.2716 3.35038 53.1246 3.74383 53.0566 4.03707C52.8662 4.85852 52.871 5.92686 53.0684 6.67975C53.3337 7.69126 54.1098 8.59443 55.4775 9.48332C55.8863 9.74903 56.316 10.0006 57.2045 10.4945C57.6366 10.7347 58.1923 11.0522 58.4393 11.2001C59.4522 11.8062 60.0284 12.345 60.2383 12.882C60.3311 13.1194 60.3513 13.6553 60.2799 13.9812C60.1473 14.5863 59.8275 14.9284 59.2538 15.0792C58.9954 15.1472 58.4441 15.148 58.1916 15.0808C57.7663 14.9677 57.4115 14.7011 57.2523 14.3753C57.1085 14.0809 57.0843 13.8767 57.0837 12.9559L57.0832 12.1159H54.939H52.7949L52.8101 13.0898C52.8228 13.8965 52.8358 14.1197 52.886 14.3906C53.2084 16.1293 54.344 17.2659 56.2465 17.7541C57.7511 18.1401 59.7397 18.1203 61.1735 17.7051C62.0289 17.4573 62.6421 17.1132 63.1829 16.5773C64.0344 15.7339 64.3516 14.7597 64.3503 12.9931C64.3497 12.2456 64.3172 11.9403 64.1879 11.4649C63.9358 10.5378 63.1084 9.59833 61.7961 8.74908C61.3587 8.46597 60.8393 8.1699 59.7811 7.60033C58.2966 6.80139 57.7891 6.47122 57.4102 6.05767C57.0439 5.65788 56.9195 5.1724 57.039 4.60843C57.1878 3.90591 57.7008 3.52382 58.4956 3.52355C59.0916 3.52337 59.5645 3.77005 59.8 4.20403C59.9502 4.48095 59.9732 4.6158 59.989 5.31412L60.0037 5.96085H61.9927H63.9816V5.27811C63.9816 4.90262 63.9668 4.4577 63.9487 4.28943C63.735 2.30455 62.3726 1.15753 59.8783 0.862235C59.3958 0.805144 58.2411 0.780761 57.7671 0.817662ZM106.606 0.805678C106.229 0.843411 105.607 0.946681 105.29 1.02417C104.343 1.25595 103.635 1.63183 103.05 2.21308C102.373 2.88545 102.041 3.605 101.86 4.78633C101.809 5.12102 101.786 12.8971 101.834 13.5135C101.878 14.0754 101.931 14.3771 102.056 14.7772C102.683 16.7808 104.777 17.873 107.826 17.7857C110.916 17.6973 112.791 16.4267 113.164 14.1676C113.263 13.5648 113.282 13.0107 113.282 10.6459V8.33963H110.412H107.543V9.52902V10.7184H108.376H109.208L109.208 12.1234C109.207 13.6576 109.195 13.7966 109.04 14.0824C108.772 14.5747 108.286 14.8444 107.617 14.8731C106.724 14.9113 106.088 14.5089 105.886 13.778C105.837 13.6003 105.833 13.3101 105.833 9.36548C105.833 5.3875 105.836 5.12979 105.887 4.91258C106.075 4.11376 106.637 3.69197 107.513 3.69197C108.048 3.69197 108.414 3.82494 108.721 4.13094C109.081 4.48951 109.148 4.72356 109.17 5.70067L109.186 6.40687H111.219H113.252V5.89082C113.252 4.10365 112.921 3.06912 112.078 2.22893C111.347 1.49921 110.434 1.09422 109.015 0.87053C108.696 0.820219 108.462 0.808236 107.677 0.801694C107.154 0.797353 106.672 0.799136 106.606 0.805678ZM68.1273 1.24323C68.1188 1.26544 68.1168 4.10555 68.1228 7.55463C68.1326 13.1424 68.139 13.8601 68.1818 14.1419C68.3477 15.2339 68.67 15.9214 69.3159 16.5618C70.1789 17.4172 71.3704 17.8419 73.2065 17.9484C74.4447 18.0202 75.7087 17.8751 76.6393 17.5542C78.3558 16.9624 79.2918 15.7284 79.4425 13.8585C79.4626 13.6098 79.4734 11.3203 79.4734 7.3392V1.20329H77.4372H75.4009L75.3929 7.51449L75.3849 13.8257L75.3185 14.0211C75.1498 14.5171 74.819 14.8356 74.3132 14.9893C74.0447 15.0709 73.4867 15.0626 73.2303 14.9732C72.7738 14.8139 72.4889 14.5385 72.297 14.0709L72.233 13.9149L72.2182 7.56653L72.2033 1.21816L70.173 1.21052C68.4856 1.20415 68.1402 1.20968 68.1273 1.24323ZM17.4641 1.3148C17.4126 1.56151 14.503 17.394 14.503 17.4278C14.503 17.4615 14.8642 17.4682 16.6723 17.4682H18.8416L18.8584 17.3716C18.893 17.1725 21.0447 2.78595 21.0447 2.75357C21.0447 2.73496 21.0714 2.71976 21.1042 2.71976C21.1369 2.71976 21.1636 2.73653 21.1636 2.75702C21.1636 2.79336 23.2573 17.1798 23.2905 17.3716L23.3072 17.4682H25.4771H27.6469L27.6314 17.4013C27.6118 17.3165 24.6723 1.2721 24.6723 1.24965C24.6723 1.24052 23.0543 1.23303 21.0768 1.23303H17.4812L17.4641 1.3148ZM31.2325 1.44848C31.2181 1.6389 30.8835 16.9691 30.8859 17.327L30.8869 17.4682H32.9088H34.9308L34.931 16.2268C34.9316 13.1446 35.0227 2.88363 35.0497 2.85663C35.0655 2.84078 35.0866 2.83588 35.0964 2.84575C35.1063 2.85562 35.7154 6.1196 36.45 10.099C37.1846 14.0785 37.7925 17.3645 37.8009 17.4013L37.8162 17.4682H39.8632H41.9103L41.9411 17.3121C41.958 17.2262 42.564 13.9446 43.2877 10.0196C44.0114 6.09466 44.6149 2.87061 44.6288 2.85506C44.6448 2.83721 44.6636 2.83721 44.6799 2.85506C44.6992 2.8762 44.8085 15.5452 44.8036 17.1931L44.8027 17.4682H46.826H48.8492L48.8314 16.9404C48.8216 16.6501 48.7479 13.2815 48.6678 9.45468C48.5876 5.62782 48.5132 2.21243 48.5026 1.86489L48.4833 1.23303L45.1934 1.23306L41.9036 1.23311L40.9079 7.43638C39.9691 13.2853 39.8912 13.7326 39.8245 13.6584C39.819 13.6523 39.3671 10.8574 38.8203 7.44759L37.8261 1.24789L34.5375 1.24034L31.2488 1.23276L31.2325 1.44848ZM83.9931 9.27627V17.3195H85.9705H87.9478L87.9476 16.9553C87.9475 16.7549 87.9007 13.848 87.8437 10.4954C87.7867 7.14281 87.74 4.32954 87.7399 4.24367C87.7396 3.99842 87.8102 4.03776 87.8999 4.33287C87.9409 4.46781 88.3503 5.82258 88.8098 7.34351C89.2693 8.86445 90.1353 11.7313 90.7343 13.7143L91.8236 17.3198L94.6953 17.3122L97.567 17.3047L97.5745 9.26884L97.582 1.23303H95.5741H93.5663L93.5833 1.83515C93.5927 2.16634 93.6392 4.80565 93.6868 7.70033C93.7343 10.595 93.7797 13.1942 93.7878 13.4763C93.8012 13.9492 93.7983 13.9892 93.7507 13.9892C93.7076 13.9892 93.3954 12.945 91.8596 7.66316C90.8478 4.18381 90.0139 1.31367 90.0064 1.28506C89.9934 1.23594 89.8247 1.23303 86.9929 1.23303H83.9931V9.27627Z" fill="#2D2D2D"/>
</svg>
