<svg width="36" height="37" viewBox="0 0 36 37" fill="none" xmlns="http://www.w3.org/2000/svg">
<g id="nstagram">
<g id="Vector">
<path d="M17.9985 11.8933C16.159 11.8933 14.3948 12.6241 13.094 13.9248C11.7933 15.2256 11.0625 16.9898 11.0625 18.8293C11.0625 20.6689 11.7933 22.4331 13.094 23.7338C14.3948 25.0346 16.159 25.7653 17.9985 25.7653C19.838 25.7653 21.6022 25.0346 22.903 23.7338C24.2037 22.4331 24.9345 20.6689 24.9345 18.8293C24.9345 16.9898 24.2037 15.2256 22.903 13.9248C21.6022 12.6241 19.838 11.8933 17.9985 11.8933ZM17.9985 23.3338C16.8034 23.3338 15.6573 22.8591 14.8123 22.014C13.9672 21.169 13.4925 20.0229 13.4925 18.8278C13.4925 17.6328 13.9672 16.4866 14.8123 15.6416C15.6573 14.7966 16.8034 14.3218 17.9985 14.3218C19.1936 14.3218 20.3397 14.7966 21.1847 15.6416C22.0298 16.4866 22.5045 17.6328 22.5045 18.8278C22.5045 20.0229 22.0298 21.169 21.1847 22.014C20.3397 22.8591 19.1936 23.3338 17.9985 23.3338Z" fill="black"/>
<path d="M25.209 13.2553C26.102 13.2553 26.826 12.5314 26.826 11.6383C26.826 10.7453 26.102 10.0213 25.209 10.0213C24.316 10.0213 23.592 10.7453 23.592 11.6383C23.592 12.5314 24.316 13.2553 25.209 13.2553Z" fill="black"/>
<path d="M30.7995 9.99433C30.4523 9.0976 29.9216 8.28325 29.2415 7.60342C28.5614 6.92358 27.7469 6.39323 26.85 6.04633C25.8005 5.65236 24.6918 5.43934 23.571 5.41633C22.1265 5.35333 21.669 5.33533 18.006 5.33533C14.343 5.33533 13.8735 5.33533 12.441 5.41633C11.3211 5.43816 10.2131 5.65123 9.165 6.04633C8.2679 6.39283 7.45315 6.92303 6.773 7.60292C6.09285 8.28281 5.56234 9.09736 5.2155 9.99433C4.82146 11.0437 4.60892 12.1526 4.587 13.2733C4.5225 14.7163 4.503 15.1738 4.503 18.8383C4.503 22.5013 4.503 22.9678 4.587 24.4033C4.6095 25.5253 4.821 26.6323 5.2155 27.6838C5.56331 28.5805 6.09434 29.3947 6.77465 30.0745C7.45496 30.7543 8.26959 31.2847 9.1665 31.6318C10.2126 32.0416 11.3211 32.2699 12.444 32.3068C13.8885 32.3698 14.346 32.3893 18.009 32.3893C21.672 32.3893 22.1415 32.3893 23.574 32.3068C24.6947 32.284 25.8033 32.0715 26.853 31.6783C27.7496 31.3306 28.5639 30.7998 29.244 30.1198C29.924 29.4398 30.4548 28.6255 30.8025 27.7288C31.197 26.6788 31.4085 25.5718 31.431 24.4498C31.4955 23.0068 31.515 22.5493 31.515 18.8848C31.515 15.2203 31.515 14.7553 31.431 13.3198C31.4135 12.1832 31.1999 11.0582 30.7995 9.99433ZM28.9725 24.2923C28.9628 25.1568 28.805 26.0132 28.506 26.8243C28.2807 27.4076 27.9359 27.9373 27.4936 28.3793C27.0513 28.8214 26.5214 29.1659 25.938 29.3908C25.1358 29.6885 24.2885 29.8463 23.433 29.8573C22.008 29.9233 21.606 29.9398 17.952 29.9398C14.295 29.9398 13.9215 29.9398 12.4695 29.8573C11.6144 29.8469 10.7675 29.6891 9.966 29.3908C9.38053 29.1673 8.8485 28.8234 8.40433 28.3813C7.96017 27.9392 7.61375 27.4087 7.3875 26.8243C7.09267 26.0219 6.93497 25.1756 6.921 24.3208C6.8565 22.8958 6.8415 22.4938 6.8415 18.8398C6.8415 15.1843 6.8415 14.8108 6.921 13.3573C6.93069 12.4934 7.08848 11.6375 7.3875 10.8268C7.845 9.64333 8.7825 8.71183 9.966 8.25883C10.7679 7.96204 11.6145 7.80427 12.4695 7.79233C13.896 7.72783 14.2965 7.70983 17.952 7.70983C21.6075 7.70983 21.9825 7.70983 23.433 7.79233C24.2886 7.80262 25.136 7.96043 25.938 8.25883C26.5214 8.48424 27.0512 8.82913 27.4935 9.27137C27.9357 9.71361 28.2806 10.2434 28.506 10.8268C28.8008 11.6293 28.9585 12.4756 28.9725 13.3303C29.037 14.7568 29.0535 15.1573 29.0535 18.8128C29.0535 22.4668 29.0535 22.8598 28.989 24.2938H28.9725V24.2923Z" fill="black"/>
</g>
</g>
</svg>
